# xmcd
# 
# Track frame offsets:
#     182
#     7572
#     20537
#     29665
#     36250
#     42500
#     83845
#     112187
#     144007
#     166207
#     177187
#     186570
#     202567
#     209880
#     217630
#     222470
#     228735
#     235240
#     248012
#     254317
#     264212
#     270130
#     272905
#     280010
#     283795
#     295290
# 
# Disc length: 4063
# 
# Revision: 2
# Processed by: cddbd v1.5.2PL0 Copyright (c) Steve Scherf et al.
# Submitted via: fre:ac v1.0.27
# 
DISCID=7a0fdd1a
DTITLE=Georgie - Chants relgieux
DYEAR=0
DGENRE=folk
TTITLE0=Ourmouli
TTITLE1=Orovela
TTITLE2=Namgalo
TTITLE3=Herio da Hopouna
TTITLE4=Bitjebo, Vtokhnot Siminda
TTITLE5=Nadouri
TTITLE6=Kali Viqav
TTITLE7=Charchandelsa Naqanevsa
TTITLE8=Mtas Khokhobi Aprinela
TTITLE9=Hymne au soleil ou à la divinité suprême
TTITLE10=Hymne à Saint-Georges
TTITLE11=Lamentation de Balskvémo
TTITLE12=O rayonnante hirondelle
TTITLE13=Grâce de l'amour
TTITLE14=Pour ta résurrection
TTITLE15=O souverein des cieux
TTITLE16=La joie d'Isaie Alleluia
TTITLE17=Hymne de la nativité de Letjkhoumi
TTITLE18=Hymne de la nativité de Mingrélie
TTITLE19=Hymne de la nativité de Kakhétie
TTITLE20=Chant rituel pour la veille de Pâques
TTITLE21=Cloche du sanctuaire de Goudani
TTITLE22=Devant la divinité
TTITLE23=Chant nuptial
TTITLE24=Alleluia nuptial
TTITLE25=Chant rituel en l'honneur de la jeune mariée
EXTD=
EXTT0=
EXTT1=
EXTT2=
EXTT3=
EXTT4=
EXTT5=
EXTT6=
EXTT7=
EXTT8=
EXTT9=
EXTT10=
EXTT11=
EXTT12=
EXTT13=
EXTT14=
EXTT15=
EXTT16=
EXTT17=
EXTT18=
EXTT19=
EXTT20=
EXTT21=
EXTT22=
EXTT23=
EXTT24=
EXTT25=
PLAYORDER=
